<?xml version="1.0" encoding="iso-8859-1"?>
<!-- Generator: Adobe Illustrator 21.0.2, SVG Export Plug-In . SVG Version: 6.00 Build 0)  -->
<svg xmlns="http://www.w3.org/2000/svg" xmlns:xlink="http://www.w3.org/1999/xlink" version="1.1" id="Layer_1" x="0px" y="0px" viewBox="0 0 40 40" style="enable-background:new 0 0 40 40;" xml:space="preserve">
<g>
	<rect x="7.5" y="2.5" style="fill:#DFF0FE;" width="27" height="31"/>
	<g>
		<path style="fill:#4788C7;" d="M34,3v30L8,33V3H34 M35,2H7v32l28,0V2L35,2z"/>
	</g>
</g>
<g>
	<path style="fill:#4788C7;" d="M4.5,35V5c0-1.378,1.121-2.5,2.5-2.5h0.5V35H4.5z"/>
	<g>
		<path style="fill:#4788C7;" d="M7,3v31.5H5V5C5,3.897,5.897,3,7,3 M8,2H7C5.343,2,4,3.343,4,5v30.5h4V2L8,2z"/>
	</g>
</g>
<g>
	<path style="fill:#98CCFD;" d="M8,3H7C5.895,3,5,3.895,5,5v30.231h3V3z"/>
</g>
<g>
	<path style="fill:#FFFFFF;" d="M6.5,37.5c-1.103,0-2-0.897-2-2s0.897-2,2-2h28v0.34C34.321,34.112,34,34.71,34,35.5   s0.321,1.388,0.5,1.66v0.34H6.5z"/>
	<g>
		<path style="fill:#4788C7;" d="M33.839,34c-0.174,0.371-0.339,0.884-0.339,1.5c0,0.616,0.165,1.13,0.339,1.5H6.5    C5.673,37,5,36.327,5,35.5S5.673,34,6.5,34H33.839 M35,33H6.5C5.119,33,4,34.119,4,35.5S5.119,38,6.5,38H35v-1    c0,0-0.5-0.597-0.5-1.5c0-0.903,0.5-1.5,0.5-1.5V33L35,33z"/>
	</g>
</g>
<path style="fill:#4788C7;" d="M14.195,18.578h-1.989v2.366h2.249v1.482h-3.952v-8.762h3.81v1.482h-2.106v2.015h1.989V18.578z"/>
<path style="fill:#4788C7;" d="M15.495,13.794c0.481-0.104,1.132-0.169,1.781-0.169c1.015,0,1.82,0.143,2.379,0.676  c0.521,0.455,0.754,1.183,0.754,1.924c0,0.949-0.285,1.625-0.74,2.106c-0.546,0.585-1.417,0.845-2.133,0.845  c-0.116,0-0.221,0-0.338-0.013v3.263h-1.703V13.794z M17.198,17.785c0.091,0.013,0.183,0.013,0.286,0.013  c0.858,0,1.235-0.611,1.235-1.43c0-0.767-0.313-1.365-1.105-1.365c-0.155,0-0.312,0.026-0.416,0.065V17.785z"/>
<path style="fill:#4788C7;" d="M22.957,13.664v5.694c0,1.287,0.377,1.677,0.832,1.677c0.494,0,0.845-0.351,0.845-1.677v-5.694h1.703  v5.395c0,2.249-0.857,3.471-2.535,3.471c-1.833,0-2.548-1.261-2.548-3.458v-5.408H22.957z"/>
<path style="fill:#4788C7;" d="M27.676,13.794c0.521-0.117,1.209-0.169,1.938-0.169c0.819,0,1.612,0.104,2.223,0.624  c0.469,0.39,0.663,0.975,0.663,1.586c0,0.78-0.402,1.534-1.261,1.911v0.052c1.014,0.286,1.547,1.118,1.547,2.093  c0,0.715-0.233,1.287-0.649,1.716c-0.521,0.572-1.404,0.884-2.874,0.884c-0.649,0-1.195-0.039-1.586-0.104V13.794z M29.379,17.265  h0.364c0.611,0,1.079-0.52,1.079-1.235c0-0.637-0.299-1.131-0.988-1.131c-0.194,0-0.351,0.013-0.455,0.052V17.265z M29.379,21.152  c0.104,0.026,0.234,0.026,0.377,0.026c0.702,0,1.262-0.429,1.262-1.313c0-0.884-0.599-1.339-1.274-1.339h-0.364V21.152z"/>
</svg>
